<?xml version="1.0" standalone="no"?>
<!DOCTYPE svg PUBLIC "-//W3C//DTD SVG 20010904//EN"
 "http://www.w3.org/TR/2001/REC-SVG-20010904/DTD/svg10.dtd">
<svg version="1.0" xmlns="http://www.w3.org/2000/svg"
 width="96.000000pt" height="96.000000pt" viewBox="0 0 96.000000 96.000000"
 preserveAspectRatio="xMidYMid meet">
<metadata>
Created by potrace 1.14, written by Peter Selinger 2001-2017
</metadata>
<g transform="translate(0.000000,96.000000) scale(0.100000,-0.100000)"
fill="#000000" stroke="none">
<path d="M435 903 c-143 -25 -248 -101 -301 -218 -80 -178 -37 -417 103 -571
61 -67 103 -80 72 -22 -14 26 -6 33 15 12 15 -14 23 -15 56 -5 21 6 48 19 60
29 21 17 22 21 11 73 -17 78 -67 172 -127 235 l-51 55 -34 -18 c-75 -40 -80
-46 -74 -94 3 -24 10 -57 16 -72 7 -15 9 -30 6 -33 -3 -3 -12 16 -21 43 -51
155 -34 289 50 382 165 184 463 148 575 -69 27 -52 38 -164 20 -208 -6 -15
-13 -39 -15 -54 -2 -15 -10 -35 -16 -45 -9 -14 -10 -14 -7 -2 3 9 8 36 12 60
6 42 5 45 -25 62 -76 45 -81 47 -110 32 -56 -29 -133 -134 -170 -233 -24 -64
-10 -98 53 -131 38 -20 49 -22 62 -11 19 16 19 10 1 -26 -18 -33 -12 -48 14
-34 41 22 137 121 169 175 65 108 97 273 75 390 -24 135 -147 262 -279 289
-41 9 -115 13 -140 9z"/>
</g>
</svg>
